<?xml version="1.0" standalone="no"?>
<!DOCTYPE svg PUBLIC "-//W3C//DTD SVG 20010904//EN"
 "http://www.w3.org/TR/2001/REC-SVG-20010904/DTD/svg10.dtd">
<svg version="1.0" xmlns="http://www.w3.org/2000/svg"
 width="512.000000pt" height="512.000000pt" viewBox="0 0 512.000000 512.000000"
 preserveAspectRatio="xMidYMid meet">

<g transform="translate(0.000000,512.000000) scale(0.100000,-0.100000)"
fill="#000000" stroke="none">
<path d="M2467 5076 c-58 -21 -114 -62 -145 -104 -15 -21 -231 -406 -481 -855
l-454 -817 -588 0 c-392 0 -605 -4 -640 -11 -34 -7 -64 -23 -90 -46 -75 -68
-70 53 -67 -1600 l3 -1481 30 -43 c17 -23 50 -53 74 -66 l44 -23 2407 0 2407
0 44 23 c24 13 58 43 74 66 l30 43 3 1481 c3 1653 8 1532 -67 1600 -26 23 -56
39 -90 46 -35 7 -248 11 -640 11 l-588 0 -459 826 c-252 454 -474 844 -493
865 -69 82 -217 121 -314 85z m142 -200 c30 -16 51 -53 51 -92 0 -38 -59 -94
-100 -94 -43 0 -100 56 -100 97 1 79 78 125 149 89z m-137 -371 c96 -28 193
-11 271 49 l45 34 353 -635 c195 -350 356 -640 357 -644 2 -5 -104 -9 -235 -9
-132 0 -254 -5 -275 -10 -103 -29 -103 -161 0 -190 24 -6 366 -10 985 -10
l947 0 0 -1430 0 -1430 -2360 0 -2360 0 0 1430 0 1430 948 0 c618 0 960 4 984
10 103 29 103 161 0 190 -21 5 -143 10 -275 10 -131 0 -237 4 -235 9 2 4 162
294 357 644 l353 635 45 -34 c24 -18 67 -40 95 -49z"/>
<path d="M2511 3276 c-87 -48 -50 -186 49 -186 51 0 100 49 100 99 0 75 -83
124 -149 87z"/>
<path d="M369 1971 c-19 -19 -29 -40 -29 -58 0 -52 109 -572 125 -596 30 -46
100 -61 145 -30 39 27 46 41 81 156 18 59 36 104 40 100 4 -4 19 -48 34 -98
35 -117 49 -141 87 -161 53 -27 121 -5 149 48 5 10 34 144 65 299 59 304 60
320 10 354 -32 23 -90 19 -122 -8 -22 -19 -31 -42 -49 -128 l-22 -104 -32 104
c-38 122 -61 151 -120 151 -63 0 -86 -28 -124 -150 l-33 -104 -22 104 c-25
123 -46 150 -113 150 -31 0 -47 -7 -70 -29z"/>
<path d="M1228 1984 c-45 -24 -50 -62 -46 -371 l3 -283 28 -27 c27 -28 30 -28
166 -31 112 -3 145 0 170 12 62 33 73 112 22 158 -29 26 -38 28 -111 28 l-80
0 0 35 0 35 71 0 c81 0 103 9 125 52 20 39 12 87 -22 119 -21 20 -38 24 -100
27 l-74 4 0 29 0 29 70 0 c109 0 152 31 152 108 0 28 -7 43 -31 64 -31 28 -32
28 -174 28 -105 -1 -149 -5 -169 -16z"/>
<path d="M1723 1985 c-37 -26 -43 -76 -43 -355 0 -360 0 -360 197 -360 66 0
123 5 138 12 55 25 72 107 31 155 -21 24 -32 28 -95 31 l-71 4 0 238 0 237
-26 27 c-31 30 -95 36 -131 11z"/>
<path d="M2340 1984 c-128 -46 -215 -152 -241 -289 -24 -130 37 -275 151 -358
47 -34 149 -67 208 -67 103 0 213 55 256 129 55 94 -72 193 -152 118 -54 -49
-103 -59 -165 -33 -70 29 -117 122 -98 191 30 109 147 158 251 105 22 -11 48
-20 59 -20 52 0 101 49 101 100 0 40 -34 80 -90 108 -69 34 -207 42 -280 16z"/>
<path d="M3013 1986 c-59 -19 -104 -49 -153 -102 -182 -197 -97 -513 159 -594
76 -24 139 -25 211 -4 316 94 359 519 68 674 -56 30 -73 34 -153 37 -56 2
-106 -2 -132 -11z m193 -202 c100 -47 118 -183 35 -265 -67 -67 -157 -65 -227
5 -57 56 -67 114 -33 183 31 63 77 93 141 93 28 0 65 -7 84 -16z"/>
<path d="M3657 1980 c-14 -11 -30 -35 -36 -53 -12 -39 -101 -531 -101 -561 0
-32 28 -66 66 -82 29 -12 39 -12 67 -1 47 20 57 37 76 134 l18 88 29 -95 c25
-82 34 -98 64 -118 27 -18 44 -23 73 -19 56 8 84 39 108 121 33 118 35 119 49
36 7 -41 20 -88 27 -103 17 -34 67 -57 106 -50 37 7 77 57 77 96 0 18 -23 149
-50 291 -28 143 -50 263 -50 267 0 4 -14 21 -31 38 -25 25 -39 31 -75 31 -71
0 -98 -33 -134 -160 -17 -58 -33 -112 -36 -120 -3 -8 -20 34 -39 96 -37 127
-47 147 -77 168 -32 23 -100 20 -131 -4z"/>
<path d="M4389 1971 l-29 -29 0 -296 c0 -199 4 -303 11 -320 22 -47 66 -58
215 -54 l136 3 29 33 c40 44 40 93 0 133 -28 27 -34 29 -110 29 l-81 0 0 35 0
35 71 0 c65 0 73 2 100 29 21 22 29 39 29 66 0 73 -42 105 -140 105 -60 0 -60
0 -60 29 l0 29 81 4 c77 3 82 5 110 36 40 44 40 93 0 133 l-29 29 -152 0 -152
0 -29 -29z"/>
</g>
</svg>
